#!OML:ASF E:/inclinewalkrobotboard/Project1/Captureday1/Session1/subject1.ASF
:FULLY-SPECIFIED
:DEGREES
1
root 0 0 0 12.713464943442213 6.522737484484397 -5.550472005696857
lowerback 8.322420540162636 3.5769756560099326 0.7548682671741728
upperback -5.124897889457361 4.568511045353839 -2.1278969483047794
thorax -9.817340834646938 2.0865696602468673 -3.4829094969310774
lowerneck -11.419200907799857 6.925501407057144 15.978696406376375
upperneck 36.69779175411299 5.88798998372479 -1.2999022000820177
head 15.140033106463068 4.71084043947611 -2.474886935502303
rclavicle 1.2619741868239587E-15 8.489183728701554E-15
rhumerus 1.1981963890454264 7.948323497336049 -77.61165209267104
rradius 38.19686843276593
rwrist -9.885359402423367
rhand -21.31947521473333 -22.66529772616822
rfingers 7.125020000000012
rthumb 5.078060367555329 -52.84054455024575
lclavicle -6.360800600798604E-15 5.092856400580252E-15
lhumerus -51.71452206740932 5.546108595688615 77.07618922353925
lradius 53.7251444315431
lwrist -5.6979793504211855
lhand -10.30734057632123 19.238537311404972
lfingers 7.12501999999996
lthumb 15.708990092654311 48.34295084550401
rfemur 2.50312800180747 18.780373707046266 34.67839872482479
rtibia -10.661047834564954
rfoot 7.937713691256928 -29.217793480354892
rtoes -53.37050672490386
lfemur -2.26661257686316 -37.45719194333903 -25.744249944961858
ltibia -11.778564311346294
lfoot -41.87739538009079 5.6019047147699474
ltoes -20.131756430057173
2
root 0 0 0 12.431889975997613 7.557976834396935 -5.190746241845125
lowerback 10.908798683700038 3.7839115007554227 0.6282234702541688
upperback -4.801919621737762 4.701792593152065 -2.4119887667234092
thorax -10.9207141446601 2.1532026978905607 -3.7532075641240836
lowerneck -12.086339873619075 7.340204479018016 15.881943424149874
upperneck 35.95787436105253 6.489914971095393 -2.3475691262420773
head 15.09225080665276 4.913784750734411 -2.745502709914572
rclavicle 3.5662292023540687E-16 8.204164808836787E-15
rhumerus -2.4938787413940617 8.426043067332799 -78.29428819655178
rradius 33.11614763153996
rwrist -6.841342631059408
rhand -22.831403662485847 -21.07998531791142
rfingers 7.125019999999991
rthumb 3.6135671009638966 -51.372749235741104
lclavicle -8.57543748696213E-15 3.536846820968208E-15
lhumerus -52.6476979042118 6.381326126979658 77.02961755004286
lradius 53.426490251292385
lwrist -5.745730559108059
lhand -10.792557330921486 19.44357349995895
lfingers 7.125019999999955
lthumb 15.244484460541285 48.5755556574733
rfemur 2.191186039712699 18.768581515102056 34.72978069275621
rtibia -10.599023779568164
rfoot 7.992280446903514 -29.083486414603723
rtoes -54.4396176482633
lfemur -2.947027346446916 -37.73699713968823 -25.39363180213775
ltibia -11.887655229217252
lfoot -43.12785049009358 6.443262722474771
ltoes -21.47333734792319
3
root 0 0 0 12.513579449893022 6.546164928488222 -5.035693398865487
lowerback 12.147080332485157 3.7082902168123004 0.5462571695319177
upperback -4.644180759591072 4.519207748779568 -2.5756962397857475
thorax -11.419078401499132 2.0643430217162857 -3.8740570241728842
lowerneck -12.175761188710245 7.958288998177096 16.254280654966983
upperneck 35.60718200968695 7.4646205527409535 -3.3997900329422253
head 15.072753755462074 5.299965763967633 -3.0668143420120577
rclavicle -8.717866002389865E-16 8.674653056784331E-15
rhumerus -5.443917592022993 9.912775138563344 -79.29851785759563
rradius 32.7436138224478
rwrist -6.090490103011348
rhand -23.582328715828094 -19.6925511998419
rfingers 7.125019999999979
rthumb 2.887556808886883 -50.044023647664325
lclavicle -1.0325505645774656E-14 3.24869182565901E-15
lhumerus -53.4203291921524 7.433947293330526 76.78612474451047
lradius 53.14441759245115
lwrist -5.940506549512406
lhand -11.299518838393137 19.54436300822936
lfingers 7.1250199999999495
lthumb 14.7581174396771 48.7013842840032
rfemur 1.691812763387503 18.830999287650478 34.73670069518995
rtibia -10.356068670084994
rfoot 7.998003502682565 -29.02586538999324
rtoes -54.555401090587516
lfemur -3.4176647755092873 -37.62619410856387 -25.14452466221472
ltibia -11.73514836199709
lfoot -43.677184263472206 6.916364574077198
ltoes -22.416871802118376
4
root 0 0 0 12.692011189762713 5.523843500247319 -4.945011437301629
lowerback 12.70236208623285 3.584590648178521 0.47762218506681864
upperback -4.6012676859941415 4.304440383456015 -2.66452488025514
thorax -11.652297542252393 1.9630728058216258 -3.8999872149777937
lowerneck -12.123166092238023 8.430597169642775 16.572153201107767
upperneck 35.467752241828485 8.2279218040378 -4.202177052156365
head 15.071907058281745 5.601509965445557 -3.31960403000968
rclavicle -8.752184512187042E-16 9.200314211648156E-15
rhumerus -6.3987842941862585 11.45401055864104 -80.00387659790493
rradius 34.37300720456327
rwrist -6.7354465121805305
rhand -24.02244215982524 -18.83348235976142
rfingers 7.125019999999973
rthumb 2.4620979874499316 -49.22096708310078
lclavicle -1.0502622908533469E-14 3.1776498511718114E-15
lhumerus -53.39552551373597 8.239146485995931 76.37589997983682
lradius 53.43543717661227
lwrist -6.16217172000532
lhand -11.935514418157105 19.503980660409624
lfingers 7.125019999999942
lthumb 14.146247603738964 48.693771137028165
rfemur 1.3073703977313258 18.92359780954461 34.76050115738866
rtibia -10.163084332287312
rfoot 7.934429478507425 -29.00069134473214
rtoes -54.3544973778112
lfemur -3.6714410208093113 -37.48780568318286 -25.023806809876593
ltibia -11.60253885184271
lfoot -43.84437678010883 7.110810088979913
ltoes -22.992741217761612
5
root 0 0 0 12.811256949262138 5.050116228160871 -4.873358585123357
lowerback 12.941848294938282 3.5170979462141627 0.4285271086902712
upperback -4.603940551955057 4.186941444119464 -2.7115026082394174
thorax -11.768940136713285 1.9091628007341428 -3.900989995246539
lowerneck -12.078380795653995 8.660847603536581 16.704922721431817
upperneck 35.40933591419429 8.614924361084947 -4.654735395241583
head 15.074507917212735 5.747457380107218 -3.4602259324821625
rclavicle -1.7712162461683587E-16 9.647326208767675E-15
rhumerus -6.224852227670583 12.533613526697637 -80.28579075596107
rradius 35.88633024036749
rwrist -7.6556649541730515
rhand -24.380577363208197 -18.484818526814543
rfingers 7.125019999999968
rthumb 2.1158647340243455 -48.90118494680339
lclavicle -9.835870458136754E-15 3.251896479799321E-15
lhumerus -52.843332261413806 8.761336643017039 75.89279846951443
lradius 54.119285154509946
lwrist -6.442355087651018
lhand -12.706331004622447 19.362247274880808
lfingers 7.125019999999933
lthumb 13.403456128275971 48.591566306450474
rfemur 1.0210592461061783 19.017483300124667 34.79265684727357
rtibia -10.013872842558847
rfoot 7.841665777956663 -28.98993367952638
rtoes -54.03551709185925
lfemur -3.8058358021800913 -37.365393564973566 -24.985949404002007
ltibia -11.488973283488015
lfoot -43.82379813927394 7.147690502294937
ltoes -23.365192353975424
